<?xml version="1.0" standalone="no"?>
<!DOCTYPE svg PUBLIC "-//W3C//DTD SVG 1.1//EN" "http://www.w3.org/Graphics/SVG/1.1/DTD/svg11.dtd" >
<svg xmlns="http://www.w3.org/2000/svg">
<metadata></metadata>
<defs>
<font id="oratorregular" horiz-adv-x="1269" >
<font-face units-per-em="2048" ascent="1638" descent="-410" />
<missing-glyph horiz-adv-x="500" />
<glyph horiz-adv-x="0" />
<glyph unicode="&#xd;" />
<glyph unicode=" " />
<glyph unicode="!" d="M524 1423h221l-43 -985h-139zM535 -2v319h200v-319h-200z" />
<glyph unicode="&#x22;" d="M369 1202v240h200l-2 -240q0 -41 -22 -141q-31 -139 -33 -148h-86q-23 92 -35 146q-23 98 -22 143zM702 1202v240h201l-2 -240q0 -43 -20.5 -129t-36.5 -160h-84q-23 92 -35 146q-23 98 -23 143z" />
<glyph unicode="#" d="M61 508l19 96h282l60 332h-285l19 96h284l123 684h99l-347 -1923h-98l129 715h-285zM598 -207l352 1923h97l-123 -684h286l-20 -96h-285l-57 -332h285l-19 -96h-285l-131 -715h-100z" />
<glyph unicode="$" d="M244 369l121 88q47 -72 77 -103q51 -49 113 -59v381q-119 31 -190 104q-78 80 -78 197q0 111 80 190q72 72 188 99v176h152v-176q88 -10 167 -64q70 -45 132 -125l-107 -94q-55 63 -84 88q-51 43 -108 55v-344q137 -20 225 -100q98 -90 98 -223q0 -127 -98 -215t-225 -88 v-176h-152v176q-92 0 -180 67q-70 53 -131 146zM440 973q0 -53 31 -90t84 -60v303q-51 -14 -83 -56t-32 -97zM705 295q68 0 118.5 49t50.5 119q0 66 -51 113t-118 57v-338z" />
<glyph unicode="%" d="M168 45l698 1231q-53 -16 -100 -16q-37 0 -64 6q-25 10 -36 12q18 -53 18 -109q0 -111 -59 -186q-66 -84 -174 -84q-115 0 -175.5 80t-60.5 201q0 109 63.5 183.5t170.5 74.5q61 0 178.5 -34t173.5 -34q115 0 219 66l78 -43l-799 -1420zM346 1161q0 -57 25.5 -104 t81.5 -47q53 0 75.5 50t22.5 109q0 63 -19 105q-24 53 -81 53q-61 0 -83 -48t-22 -118zM578 258q0 106 64.5 181t170.5 75q113 0 176 -84q57 -76 58 -192q0 -113 -64.5 -185.5t-177.5 -72.5q-111 0 -169 81.5t-58 196.5zM709 238q0 -59 23.5 -104.5t80.5 -45.5q53 0 80 53 q20 43 20 105q0 86 -28.5 121.5t-73.5 35.5q-59 0 -80.5 -48t-21.5 -117z" />
<glyph unicode="&#x26;" d="M240 305q0 96 59 174q45 57 141 125q-68 86 -96 144q-39 79 -39 167q0 123 79 204t200 81t201.5 -85t80.5 -208q0 -109 -69 -194q-49 -59 -162 -138l207 -278q27 43 39 92t20 115l143 -29q-18 -164 -112 -305l88 -121l-111 -82l-75 105q-59 -45 -123 -68.5t-133 -23.5 q-139 0 -238.5 93t-99.5 232zM395 305q0 -86 53.5 -137t139.5 -51q47 0 89 17.5t79 51.5l-232 314q-66 -43 -92 -78q-37 -47 -37 -117zM446 907q0 -47 18.5 -88t94.5 -137q92 66 115 88q57 59 57 131t-40 116t-111 44q-66 0 -100 -43t-34 -111z" />
<glyph unicode="'" d="M535 1202v240h200l-2 -240q0 -41 -22 -141q-31 -139 -33 -148h-86q-23 92 -35 146q-23 98 -22 143z" />
<glyph unicode="(" d="M438 649q0 236 81 442.5t247 350.5l88 -86q-135 -131 -199.5 -315.5t-64.5 -391.5q0 -215 57 -381q66 -188 207 -325l-88 -88q-162 133 -245 349t-83 445z" />
<glyph unicode=")" d="M416 -57q135 131 202 325q59 174 60 381q0 207 -60 381q-68 199 -202 326l88 86q160 -133 248 -359q80 -205 79 -432q0 -229 -79 -434q-86 -221 -248 -362z" />
<glyph unicode="*" d="M299 1012v192l209 -22l-131 155l147 107l111 -201l110 201l148 -107l-131 -155l209 22v-192l-209 18l131 -153l-148 -107l-110 201l-111 -201l-147 107l131 153zM578 1108q0 -57 57 -57q25 0 41 16t16 41t-16.5 41t-40.5 16q-25 0 -41 -16t-16 -41z" />
<glyph unicode="+" d="M68 717v98h518v520h98v-520h518v-98h-518v-518h-98v518h-518z" />
<glyph unicode="," d="M469 -8q53 35 76 102q16 51 16 131q0 23 -1 46.5t-1 45.5h199v-98q0 -106 -72 -205q-63 -88 -168 -143z" />
<glyph unicode="-" d="M397 485v140h475v-140h-475z" />
<glyph unicode="." d="M535 -2v319h200v-319h-200z" />
<glyph unicode="/" d="M268 -59l631 1652h102l-630 -1652h-103z" />
<glyph unicode="0" d="M238 586l2 200q0 209 14 301q25 164 104 250q94 104 277 105q197 0 295 -142q76 -111 96 -319q8 -86 8 -344q0 -297 -57 -436q-92 -223 -344 -224q-184 0 -281 117q-115 139 -114 492zM391 633q0 -238 25 -328q51 -188 217 -188q154 0 211 172q37 111 37 332 q0 29 -1 57.5t-1 54.5v94q0 211 -35 314q-55 164 -207 164q-156 0 -211 -154q-35 -96 -35 -287v-231z" />
<glyph unicode="1" d="M231 -2v131h357v1116l-258 -100l-45 135l450 172v-1323h303v-131h-807z" />
<glyph unicode="2" d="M238 -2v131q104 125 211 252q176 213 286 379q145 217 146 313q0 104 -60.5 167t-163.5 63q-121 0 -189.5 -80t-84.5 -205l-143 20q29 188 125 289q109 115 292 115q168 0 272.5 -98.5t104.5 -266.5q0 -123 -131 -332q-96 -154 -266 -360q-106 -129 -213 -256h608v-131 h-794z" />
<glyph unicode="3" d="M231 1290v133h791v-131l-389 -399q176 0 289.5 -100.5t113.5 -276.5q0 -287 -266 -426q-211 -111 -520 -110v137q338 0 502 127q133 102 133 280q0 113 -84 175.5t-203 62.5q-59 0 -89 -3t-106 -16v119l416 428h-588z" />
<glyph unicode="4" d="M229 354l211 1096l146 -39l-183 -926h381v723h146v-723h112v-131h-112v-356h-146v356h-555z" />
<glyph unicode="5" d="M242 -20v137q276 0 420 63q215 96 215 344q0 113 -68 176.5t-180 63.5q-61 0 -117.5 -18.5t-120.5 -55.5h-104v733h731v-133h-586l2 -432q68 23 101 31q57 14 106 14q168 0 277.5 -105.5t109.5 -275.5q0 -303 -258 -438q-199 -104 -528 -104z" />
<glyph unicode="6" d="M236 717q0 188 24 315q35 182 121 285q104 125 278 125q88 0 170 -33t148 -92l-82 -121q-59 51 -104 74q-61 33 -125 33q-168 0 -234 -185q-41 -117 -41 -325q61 51 133 81.5t144 30.5q188 0 284 -139q84 -121 84 -317q0 -201 -102 -330q-113 -141 -307 -142 q-174 0 -269 129q-76 104 -104 295q-18 127 -18 316zM389 627q0 -215 31 -320q57 -192 217 -192q123 0 190 104q57 90 58 219q0 139 -47 221q-59 104 -189 105q-55 0 -115.5 -27.5t-144.5 -109.5z" />
<glyph unicode="7" d="M301 1290v133h795l-645 -1454l-132 60l566 1261h-584z" />
<glyph unicode="8" d="M227 360q0 135 80 230q66 76 203 145q-115 74 -166 139q-70 88 -70 205q0 154 102.5 258.5t258.5 104.5q154 0 258 -104.5t104 -260.5q0 -113 -69 -200q-53 -70 -166 -142q135 -68 201 -143q79 -95 79 -230q0 -170 -117.5 -277.5t-289.5 -107.5t-290 106.5t-118 276.5z M381 356q0 -111 70.5 -175t183.5 -64t183.5 68.5t70.5 181.5q0 100 -84 178q-33 29 -170 114q-147 -92 -174 -116q-80 -74 -80 -187zM428 1077q0 -106 96 -186q23 -18 111 -80q90 61 113 80q96 79 96 194q0 92 -58.5 155t-150.5 63q-94 0 -150.5 -64.5t-56.5 -161.5z" />
<glyph unicode="9" d="M238 973q0 203 100 330q109 139 307 139q168 0 264 -125q74 -98 105 -285q20 -127 20 -305q0 -195 -22 -321q-35 -195 -117 -297q-102 -129 -285 -129q-88 0 -170 32.5t-147 91.5l82 121q57 -49 112.5 -78.5t118.5 -29.5q164 0 232 186q43 121 43 326q-61 -53 -132 -84 t-145 -31q-190 0 -285 139q-82 121 -81 320zM387 975q0 -143 45 -221q59 -102 193 -103q68 0 139 43q51 31 119 92q0 215 -31 322q-55 192 -217 192q-129 0 -193 -102q-55 -88 -55 -223z" />
<glyph unicode=":" d="M535 -2v319h200v-319h-200zM535 602v320h200v-320h-200z" />
<glyph unicode=";" d="M469 -8q53 35 76 102q16 51 16 131q0 23 -1 46.5t-1 45.5h199v-98q0 -106 -72 -205q-63 -88 -168 -143zM559 602v320h199v-320h-199z" />
<glyph unicode="&#x3c;" d="M203 766l809 770l55 -72l-723 -698l723 -698l-55 -72z" />
<glyph unicode="=" d="M68 575v99h1134v-99h-1134zM68 860v98h1134v-98h-1134z" />
<glyph unicode="&#x3e;" d="M203 68l723 698l-723 698l55 72l809 -770l-809 -770z" />
<glyph unicode="?" d="M246 1044q39 190 125 285q102 113 284 113q164 0 266.5 -98.5t102.5 -264.5q0 -143 -217 -368q-104 -109 -105 -244h-149v37q0 186 158.5 318t158.5 253q0 98 -57 164t-154 66q-119 0 -188 -93q-55 -72 -80 -202zM526 -2v319h201v-319h-201z" />
<glyph unicode="@" d="M37 592q0 324 160 569q182 281 491 281q240 0 393.5 -175t153.5 -419q0 -176 -74 -316q-90 -172 -252 -172q-57 0 -93 19.5t-83 66.5q-51 -45 -93 -65.5t-103 -20.5q-84 0 -139.5 53.5t-55.5 141.5q0 256 147 369q129 98 385 98l37 -2q-33 -145 -45 -217 q-25 -127 -24 -221q0 -37 17.5 -60.5t51.5 -23.5q92 0 138 137q33 98 32 215q0 193 -104 317q-113 135 -301 136q-242 0 -377 -248q-111 -203 -111 -467q0 -215 107.5 -342t318.5 -127q113 0 238 49q98 39 213 115l53 -140q-117 -78 -251 -120.5t-273 -42.5q-262 0 -414 178 q-143 168 -143 434zM496 565q0 -27 13 -46t38 -19q104 0 160 215q5 23 34 168q-25 0 -53.5 -7.5t-54.5 -19.5q-51 -20 -94 -121.5t-43 -169.5z" />
<glyph unicode="A" d="M188 8l361 1415h172l360 -1415l-145 -39l-111 467h-383l-110 -467zM479 569h312l-154 654z" />
<glyph unicode="B" d="M258 0v131h115v1161h-115v133h434q143 0 231.5 -107.5t88.5 -254.5q0 -90 -36 -159.5t-114 -112.5q111 -51 163 -144.5t52 -218.5q0 -186 -84 -299q-96 -129 -276 -129h-459zM516 129h191q117 0 170 96q43 78 43 203q0 133 -59.5 206t-190.5 73h-154v-578zM518 842h125 q109 0 160 57t51 166q0 129 -62.5 178t-193.5 49h-80v-450z" />
<glyph unicode="C" d="M238 709q0 182 26 315q37 188 121 291q104 127 279 127q115 0 206 -66q80 -57 144 -168l-125 -73q-31 70 -91.5 119t-131.5 49q-170 0 -236 -228q-41 -141 -41 -366q0 -229 39 -365q66 -227 236 -227q78 0 147 57q55 45 102 123l121 -84q-61 -104 -157.5 -168.5 t-212.5 -64.5q-174 0 -277 124q-82 100 -121 289q-28 136 -28 304v12z" />
<glyph unicode="D" d="M248 -2v131h114v1161h-114v133h377q203 0 311 -114q90 -94 121 -277q20 -119 20 -340q0 -412 -121 -561q-109 -133 -327 -133h-381zM510 129l113 2q211 0 272 211q31 104 31 387q0 236 -33 350q-59 211 -236 211h-147v-1161z" />
<glyph unicode="E" d="M330 -2v1425h694v-133h-549v-463h453v-133h-453v-565h549v-131h-694z" />
<glyph unicode="F" d="M369 -2v1425h700v-133h-553v-463h465v-133h-465v-696h-147z" />
<glyph unicode="G" d="M248 721q0 371 129 563q104 158 289 158q115 0 208 -66q82 -57 148 -166l-129 -80q-43 76 -96 121q-63 53 -140 54q-156 0 -219 -246q-39 -152 -39 -375q0 -225 41 -354q68 -213 242 -213q106 0 182 65v424h-266v133h412v-637q-72 -55 -157 -88.5t-173 -33.5 q-172 0 -279 129q-84 102 -122 292q-31 150 -31 320z" />
<glyph unicode="H" d="M272 -2v1425h146v-596h434v596h145v-1425h-145v696h-434v-696h-146z" />
<glyph unicode="I" d="M369 -2v131h192v1161h-192v133h532v-133h-194v-1161h194v-131h-532z" />
<glyph unicode="J" d="M227 518h146v-72q0 -193 57 -266q49 -63 154 -63q102 0 155 90q45 76 45 184v1032h146v-1044q0 -178 -97.5 -290t-271.5 -112q-205 0 -282 183q-51 121 -52 358z" />
<glyph unicode="K" d="M340 -2v1425h145v-585h35l398 614l116 -76l-389 -600l467 -731l-123 -76l-457 736h-47v-707h-145z" />
<glyph unicode="L" d="M354 -2v1425h148v-1294h581v-131h-729z" />
<glyph unicode="M" d="M211 -2l41 1425h180l203 -598l203 598h182l41 -1425h-154l-28 1173l-244 -706l-240 706l-33 -1173h-151z" />
<glyph unicode="N" d="M264 -2v1425h180l420 -1194l-4 318v876h146v-1425h-181l-419 1196l4 -324v-872h-146z" />
<glyph unicode="O" d="M240 727q0 289 61 457q94 258 334 258q174 0 270 -133q78 -106 107 -301q18 -125 18 -318q0 -289 -61 -454q-96 -258 -334 -259q-176 0 -273 129q-76 102 -104 297q-18 127 -18 324zM389 674q0 -233 35 -357q57 -200 211 -200q152 0 209 190q35 117 35 316v68.5t2 76.5 q0 231 -37 352q-57 184 -207 185q-154 0 -213 -209q-35 -123 -35 -334v-88z" />
<glyph unicode="P" d="M340 -2v1425h309q186 0 289.5 -97t103.5 -282q0 -270 -155 -356q-104 -57 -402 -57v-633h-145zM485 762h86q170 0 232 41q86 57 86 241q0 246 -242 246h-162v-528z" />
<glyph unicode="Q" d="M240 711q0 272 69 460q100 272 328 273q227 0 326 -283q67 -192 67 -469v-8q0 -156 -18 -262q-25 -143 -88 -250l104 -123l-110 -92l-84 100q-86 -80 -199 -80q-156 0 -252 134q-78 106 -115 297q-28 140 -28 292v11zM393 674q0 -190 37 -332q59 -225 195 -225 q74 0 118 45l-180 215l113 94l147 -174q55 176 56 360q0 252 -29 385q-57 260 -217 261q-154 0 -209 -252q-31 -137 -31 -377z" />
<glyph unicode="R" d="M340 -2v1425h383q145 0 235 -118q84 -111 84 -261q0 -141 -55 -243q-63 -117 -188 -160l293 -608l-131 -64l-320 662h-156v-633h-145zM485 762h207q106 0 158 92q41 74 41 188q0 123 -55.5 185.5t-178.5 62.5h-172v-528z" />
<glyph unicode="S" d="M274 375l148 18q10 -127 51 -190q53 -84 170 -84q106 0 160 74q47 66 47 178q0 154 -139 254q-129 82 -258 163q-141 113 -142 289q0 147 92.5 256t239.5 109q143 0 229 -94q74 -82 107 -232l-141 -22q-23 90 -62 141q-51 68 -131 68q-96 0 -145 -74q-41 -61 -41 -162 q0 -115 139 -207q129 -86 258 -170q141 -125 141 -307q0 -176 -90 -287q-96 -119 -266 -119q-180 0 -270 113q-78 96 -97 285z" />
<glyph unicode="T" d="M258 1290v133h752v-133h-299v-1292h-146v1292h-307z" />
<glyph unicode="U" d="M287 338v1085h145l2 -1036q0 -129 35 -188q47 -80 166 -80q117 0 164 80q39 66 39 188v1036h147v-1077q0 -164 -94 -266.5t-256 -102.5q-160 0 -254 100.5t-94 260.5z" />
<glyph unicode="V" d="M195 1419l149 31l291 -1057l291 1057l149 -31l-422 -1450h-37z" />
<glyph unicode="W" d="M190 1423l148 27l68 -1057l206 737h45l203 -737l72 1057l147 -27l-143 -1454h-66l-233 854l-238 -854h-65z" />
<glyph unicode="X" d="M193 31l370 743l-305 608l135 70l242 -528l242 528l135 -70l-305 -608l370 -743l-131 -62l-309 647l-313 -647z" />
<glyph unicode="Y" d="M195 1397l135 55l305 -721l305 721l135 -57q-27 -61 -127 -267q-92 -190 -141 -301q-74 -168 -100 -268q-2 -2 -2 -63.5v-106.5v-219t2 -172l-146 -2v393v139q0 12 -2 31q-35 133 -168 418q-98 209 -196 420z" />
<glyph unicode="Z" d="M215 -2l602 1292h-538v133h757l-598 -1294h615v-131h-838z" />
<glyph unicode="[" d="M373 -84v1526h577v-131h-430v-1262h430v-133h-577z" />
<glyph unicode="\" d="M268 1593h103l630 -1652h-102z" />
<glyph unicode="]" d="M317 49h433v1262h-433v131h578v-1526h-578v133z" />
<glyph unicode="^" d="M227 758l351 692h114l342 -692h-110l-289 583l-297 -583h-111z" />
<glyph unicode="_" d="M-4 -152h1278v-79h-1278v79z" />
<glyph unicode="`" d="M420 1346l78 137l381 -217l-58 -97z" />
<glyph unicode="a" d="M193 23l350 1089h184l350 -1089l-145 -54l-101 332h-391l-104 -332zM481 432h307l-153 504z" />
<glyph unicode="b" d="M252 0v131h115v850h-115v133h350q176 0 277 -59q127 -76 127 -240q0 -70 -32 -130t-89 -97q88 -29 137 -101.5t49 -167.5q0 -158 -106 -241q-98 -78 -260 -78h-453zM514 639h158q82 0 132 46t50 130q0 86 -52 126t-140 40h-148v-342zM516 129h164q109 0 166 33 q74 43 74 143q0 92 -57.5 145.5t-149.5 53.5h-197v-375z" />
<glyph unicode="c" d="M238 569q0 223 92 377q111 184 321 184q123 0 210 -61t145 -178l-134 -68q-37 74 -86 117q-61 53 -133 53q-145 0 -213 -155q-49 -113 -49 -283q0 -176 45 -283q66 -153 215 -153h2q86 0 154 53q43 35 108 125l119 -84q-68 -113 -149 -170q-96 -66 -219 -66 q-225 0 -338 193q-90 156 -90 399z" />
<glyph unicode="d" d="M248 -2v131h114v850h-114v133h373q268 0 372 -151q86 -125 86 -406q0 -285 -84 -408q-101 -149 -370 -149h-4h-373zM510 129l147 2q168 0 228 137q41 94 41 285q0 250 -71 338t-202 88h-143v-850z" />
<glyph unicode="e" d="M330 -2v1114h694v-133h-549v-328h453v-131h-453v-391h549v-131h-694z" />
<glyph unicode="f" d="M369 -2v1114h700v-133h-553v-328h465v-131h-465v-522h-147z" />
<glyph unicode="g" d="M250 555q0 236 88 389q109 188 326 189q111 0 206 -62q88 -55 152 -156l-125 -81q-41 72 -98 112q-66 47 -142 47q-115 0 -178 -94q-78 -115 -78 -348q0 -231 76 -340q66 -94 185 -94q106 0 202 57v289h-266v131h412v-494q-70 -55 -160 -87.5t-182 -32.5q-223 0 -330 184 q-88 152 -88 391z" />
<glyph unicode="h" d="M272 -2v1114h146v-461h434v461h145v-1114h-145v522h-434v-522h-146z" />
<glyph unicode="i" d="M406 -2v131h155v850h-155v133h458v-133h-157v-850h157v-131h-458z" />
<glyph unicode="j" d="M227 416h146q0 -178 53 -242q47 -55 145 -55q102 0 157.5 57t55.5 160v776h146v-803q0 -154 -101.5 -241.5t-257.5 -87.5q-195 0 -276 126q-68 104 -68 310z" />
<glyph unicode="k" d="M340 -2v1114h145v-473h52l381 502l110 -88l-366 -467l430 -523l-111 -94l-449 549h-47v-520h-145z" />
<glyph unicode="l" d="M356 -2v1114h148v-983h579v-131h-727z" />
<glyph unicode="m" d="M201 -2l45 1114h190l199 -477l199 477h190l43 -1114h-154l-28 891l-250 -582l-246 582l-33 -891h-155z" />
<glyph unicode="n" d="M264 -2v1114h178l428 -934v27q0 55 -5 149.5t-5 112.5v645h146v-1114h-179l-428 934v-27q0 -57 5.5 -151.5t5.5 -112.5v-643h-146z" />
<glyph unicode="o" d="M240 555q0 231 79 383q102 195 318 195q209 0 311 -195q82 -154 82 -385q0 -238 -78 -383q-100 -190 -317 -190q-209 0 -313 192q-82 152 -82 383zM391 555q0 -168 41 -276q59 -158 201 -158q141 0 201 158q40 106 40 270v8q0 174 -38 279q-59 157 -201 157h-2 q-143 0 -203 -157q-39 -105 -39 -281z" />
<glyph unicode="p" d="M340 -2v1114l346 -2q156 0 252 -72q106 -80 106 -231q0 -233 -180 -299q-90 -33 -379 -33v-477h-145zM485 606h195q100 0 151 43q59 49 60 148q0 98 -55.5 140t-155.5 42h-195v-373z" />
<glyph unicode="q" d="M240 555q0 233 79 383q104 195 316 195q217 0 317 -207q78 -160 78 -402q0 -106 -21.5 -200.5t-72.5 -173.5l127 -115l-92 -101l-123 115q-93 -69 -212 -69h-3q-209 0 -311 192q-82 154 -82 383zM393 553q0 -168 41 -277q59 -159 199 -159h2q55 0 106 28l-184 168l90 101 l178 -164q27 63 39.5 146t12.5 159q0 174 -39 279q-59 157 -201 157h-2q-143 0 -203 -157q-39 -104 -39 -281z" />
<glyph unicode="r" d="M311 -2v1114h379q152 0 242 -78t90 -227q0 -104 -61.5 -192.5t-161.5 -118.5l272 -449l-127 -78l-282 504h-203v-475h-148zM459 604h184q96 0 161.5 53.5t65.5 149.5q0 82 -51 127t-133 45h-227v-375z" />
<glyph unicode="s" d="M274 313l132 41q20 -113 71 -170q58 -67 167 -67h3q88 0 145.5 48t57.5 136q0 115 -137 180q-129 57 -258 115q-139 84 -140 240q0 133 95.5 213.5t230.5 80.5t219 -73.5t121 -208.5l-139 -41q-18 86 -66 133q-53 53 -137 53q-74 0 -126 -36.5t-52 -108.5 q0 -104 139 -170q129 -57 258 -115q139 -88 139 -252q0 -156 -96 -243.5t-254 -87.5t-249 87t-124 246z" />
<glyph unicode="t" d="M258 979v133h752v-133h-299v-981h-146v981h-307z" />
<glyph unicode="u" d="M287 295v817h145l2 -758q0 -119 35 -172q42 -65 151 -65h3q123 0 169 56t46 181v758h147v-825q0 -145 -104 -230q-95 -77 -242 -77h-4q-156 0 -248 77q-100 84 -100 238z" />
<glyph unicode="v" d="M195 1087l139 54l301 -811l301 811l139 -54l-426 -1118h-28z" />
<glyph unicode="w" d="M193 1122l151 19l84 -774l186 538h41l183 -538l90 774l149 -19l-159 -1153h-54l-229 680l-229 -680h-54z" />
<glyph unicode="x" d="M209 43l342 545l-311 475l133 78l262 -422l262 422l133 -78l-311 -475l342 -545l-131 -74l-295 490l-295 -490z" />
<glyph unicode="y" d="M203 1067l137 74l295 -570l295 570l137 -72q-20 -37 -104 -184.5t-167 -294t-89 -164.5v-428l-146 -2v432q-10 31 -168 307q-39 68 -190 332z" />
<glyph unicode="z" d="M215 -2l580 981h-516v133h759l-575 -983h590v-131h-838z" />
<glyph unicode="{" d="M311 647q145 43 190.5 86t45.5 127q0 45 -2 72q-10 135 -10 168q0 184 65 258q74 84 258 84h121v-58q-184 0 -254 -71q-55 -55 -55 -178q0 -41 14 -172q8 -76 8 -105q0 -72 -22.5 -124t-79.5 -85q59 -31 84 -90q18 -45 18 -127q0 -41 -6 -100q-14 -137 -14 -172 q0 -121 55 -176q70 -72 252 -72v-57h-72q-229 0 -311 90q-61 68 -61 243q0 55 3 148.5t3 99.5q0 141 -88 174q-4 2 -142 37z" />
<glyph unicode="|" d="M586 -616v2306h98v-2306h-98z" />
<glyph unicode="}" d="M291 -88q184 0 254 74q55 57 55 182q0 41 -11 144.5t-11 131.5q0 74 21.5 123t78.5 82q-57 29 -80 83t-23 130q0 49 11.5 145.5t11.5 129.5q0 121 -55 176q-70 71 -252 71v58h71q231 0 310 -86q61 -68 61 -242q0 -31 -2 -108.5t-2 -122.5q0 -137 47 -174q25 -18 185 -58 q-147 -45 -192.5 -86t-45.5 -121q0 -45 2 -71q10 -135 10 -168q0 -186 -65 -264q-72 -86 -258 -86h-121v57z" />
<glyph unicode="~" d="M57 643q66 117 127 176q86 84 191 84q94 0 266 -80t246 -80q80 0 149 64q53 49 103 135l71 -51q-49 -100 -131 -168q-94 -78 -194 -78q-86 0 -254 80t-260 80q-82 0 -148 -72q-33 -37 -94 -141z" />
<glyph d="M264 -2v1425h146v-82q43 49 107.5 75t135.5 26q223 0 305 -142q63 -109 64 -348l-2 -690q0 -231 -78 -334q-90 -117 -313 -116l-2 141q160 0 211 80q37 59 36 229v690q0 188 -28 248q-49 102 -215 103q-96 0 -158.5 -71t-62.5 -167v-1067h-146z" />
<glyph d="M0 768q0 141 66 236q74 106 210 106q115 0 209 -78q63 -53 150 -176q76 115 147 174q96 78 211 78q139 0 213 -111q63 -96 64 -241q0 -135 -68 -228q-76 -104 -207 -104q-90 0 -166 45q-88 53 -196 209q-76 -119 -146 -176q-94 -78 -211 -78q-137 0 -210 106 q-66 94 -66 238zM96 754q0 -98 39 -162q47 -78 141 -78q86 0 175 84q55 51 127 158q-53 100 -119 164q-86 84 -176 84q-96 0 -146 -80q-41 -68 -41 -170zM686 766q76 -102 131 -156q92 -88 174 -88q92 0 139 84q39 70 39 168t-41 162q-49 76 -143 76q-90 0 -176 -84 q-55 -55 -123 -162z" />
<glyph d="M86 788q66 117 127 177q88 84 193 84q92 0 262 -80t252 -80q74 0 147 65q61 55 100 133l72 -51q-49 -100 -131 -168q-94 -78 -197 -77q-86 0 -254 79.5t-258 79.5q-82 0 -147 -71q-23 -25 -96 -144zM131 498q68 121 125 176q86 84 195 84q84 0 198 -49q254 -109 312 -109 q80 0 148.5 59.5t100.5 139.5l72 -54q-53 -102 -129 -167q-90 -78 -190 -78q-92 0 -258 81t-252 81q-102 0 -181 -103q-25 -33 -71 -113z" />
<glyph d="M80 705q0 236 121 413q137 201 360 201v131h144v-131q223 0 360 -197q123 -176 123 -409t-121 -410q-137 -201 -360 -201l-2 -133h-144v133q-225 0 -360 195q-121 174 -121 408zM231 707q0 -180 74 -316q92 -168 256 -168v973q-166 0 -256 -170q-74 -137 -74 -319z M707 227q162 0 254 168q76 139 75 318q0 178 -73 315q-92 170 -256 170v-971z" />
<glyph d="M96 -2v1425h310q186 0 289.5 -97t103.5 -282q0 -268 -158 -354q-109 -59 -399 -59v-633h-146zM242 762h196q111 0 164 90q43 72 43 192q0 246 -242 246h-161v-528zM717 569v121h457v-121h-162v-571h-131v571h-164z" />
<glyph horiz-adv-x="1318" />
<glyph unicode="&#xa1;" d="M514 -2l39 983h139l43 -983h-221zM524 1104v319h201v-319h-201z" />
<glyph unicode="&#xa2;" d="M238 729q0 205 71 344q86 168 266 213v156h146l2 -152q88 -10 168 -82q63 -59 115 -153l-136 -70q-29 57 -59 92q-37 43 -90 66l2 -858q57 16 111 69q39 39 81 105l119 -82q-57 -94 -131 -152q-84 -66 -182 -82v-163h-146v167q-184 39 -270 224q-68 143 -67 358zM391 719 q0 -150 31 -244q45 -135 153 -182v848q-106 -43 -151 -178q-33 -98 -33 -244z" />
<glyph unicode="&#xa3;" d="M166 731v131h188q-39 135 -41 150q-8 43 -8 96q0 141 112.5 237.5t258.5 96.5q123 0 225.5 -67.5t149.5 -182.5l-133 -47q-37 76 -95.5 121t-138.5 45q-109 0 -167 -64.5t-58 -177.5q0 -51 20 -129q10 -39 21 -78h391v-131h-352q16 -66 34 -129q18 -76 19 -131 q0 -55 -19.5 -119.5t-80.5 -169.5q37 8 68.5 12.5t72.5 4.5q53 0 139 -42t107 -42q43 0 90 37q33 29 47 41l86 -95q-57 -59 -103 -86q-59 -35 -127 -35q-43 0 -137 41t-155 41q-55 0 -119 -24q-49 -18 -109 -58l-78 103q92 154 109 188q57 115 57 209q0 55 -16 127 q-23 86 -33 127h-225z" />
<glyph unicode="&#xa4;" d="M18 227l232 230q-51 70 -79 149.5t-28 161.5q0 158 107 309l-232 230l74 69l230 -225q133 106 315 106q178 0 311 -108l230 227l73 -69l-233 -230q51 -70 78.5 -149.5t27.5 -161.5q0 -166 -104 -309l231 -230l-73 -69l-230 227q-135 -111 -313 -111q-172 0 -313 111 l-230 -227zM231 768q0 -170 117 -289t287 -119t286.5 117t116.5 289q0 170 -116.5 289t-286.5 119t-287 -117t-117 -289z" />
<glyph unicode="&#xa5;" d="M195 1397l135 55l305 -721l305 721l135 -55l-313 -699h258v-131h-313v-569h-146v569h-311v131h258z" />
<glyph unicode="&#xa6;" d="M586 156h98v-772h-98v772zM586 918v772h98v-772h-98z" />
<glyph unicode="&#xa7;" d="M281 262l145 49q25 -88 87 -144t151 -56q72 0 122 38.5t50 108.5q0 90 -136 162q-125 63 -249 129q-137 92 -138 229q0 55 30 109.5t79 87.5q-88 76 -88 194q0 121 95 197t220 76q106 0 190.5 -61.5t131.5 -161.5l-129 -56q-29 70 -77 109t-120 39q-70 0 -115 -39 t-45 -107q0 -78 129 -145q121 -61 242 -121q131 -86 131 -205q0 -63 -30.5 -118.5t-84.5 -94.5q55 -41 86 -93t31 -118q0 -129 -101.5 -209.5t-236.5 -80.5q-133 0 -234.5 76.5t-135.5 205.5zM467 764q0 -37 22.5 -61.5t61.5 -45.5l215 -114q68 49 68 135q0 53 -74 110 q-29 23 -230 125q-63 -59 -63 -149z" />
<glyph unicode="&#xa8;" d="M334 1321q0 53 26.5 91t77.5 38t78 -41t27 -94t-27 -95t-76 -42q-51 0 -78.5 45t-27.5 98zM725 1319q0 53 26.5 92t77.5 39t78 -44t27 -99q0 -49 -28.5 -90t-76.5 -41q-51 0 -77.5 44t-26.5 99z" />
<glyph unicode="&#xa9;" d="M2 711q0 287 170 499q184 231 465 232q276 0 461 -232q170 -212 170 -499t-168 -500q-182 -231 -463 -231q-279 0 -463 231q-172 215 -172 500zM113 713q0 -236 141 -420q154 -201 383 -201q221 0 377 205q143 188 143 418q0 227 -143 415q-156 203 -377 203 q-233 0 -385 -196q-139 -182 -139 -424zM313 721q0 174 84 291q94 131 262 131q125 0 201 -76t94 -203h-110q-10 76 -58.5 122t-123.5 46q-127 0 -187 -94q-51 -80 -51 -213q0 -127 55 -215q66 -102 187 -102q80 0 122.5 47t55.5 131h110q-12 -123 -88 -203 q-82 -88 -202 -88q-166 0 -263 133q-88 121 -88 293z" />
<glyph unicode="&#xaa;" d="M293 500v123h684v-123h-684zM322 762l237 661h152l237 -661l-139 -45l-68 192h-213l-67 -192zM567 1030h135l-67 199z" />
<glyph unicode="&#xab;" d="M78 702l543 515l102 -107l-436 -408l436 -407l-102 -111zM553 702l543 515l102 -107l-434 -408l434 -407l-102 -111z" />
<glyph unicode="&#xac;" d="M68 860v98h1134v-591h-98v493h-1036z" />
<glyph unicode="&#xad;" d="M68 717v98h1134v-98h-1134z" />
<glyph unicode="&#xae;" d="M-4 707q0 283 176 497q188 229 465 230q279 0 463 -228q174 -213 174 -497q0 -287 -172 -500q-186 -231 -465 -232q-281 0 -467 228q-174 213 -174 502zM106 707q0 -238 144 -420q156 -197 387 -197q229 0 383 197q143 184 143 420q0 233 -147 417q-158 197 -385 197 q-223 0 -379 -199q-145 -184 -146 -415zM399 301v815h312q121 0 186.5 -50t65.5 -167q0 -104 -57.5 -163.5t-162.5 -59.5l213 -375h-129l-202 375h-115v-375h-111zM510 786h190q72 0 107 23q45 29 45 94q0 63 -37 83t-110 20h-195v-220z" />
<glyph unicode="&#xaf;" d="M330 1245v133h612v-133h-612z" />
<glyph unicode="&#xb0;" d="M223 1171q0 170 121 291t291 121t291 -121t121 -293t-119 -292.5t-293 -120.5q-172 0 -292 121.5t-120 293.5zM317 1161q0 -133 95.5 -222t230.5 -89q127 0 218 95t91 224q0 133 -93 226.5t-226 93.5q-135 0 -225.5 -96.5t-90.5 -231.5z" />
<glyph unicode="&#xb1;" d="M68 98v99h1134v-99h-1134zM68 817v98h518v521h98v-521h518v-98h-518v-518h-98v518h-518z" />
<glyph unicode="&#xb2;" d="M395 1208q12 109 77 171.5t173 62.5q94 0 161.5 -51.5t67.5 -143.5q0 -104 -176 -297q-66 -68 -129 -135h303v-110h-475v92q111 115 191 207q156 178 155 237q0 41 -26.5 65.5t-69.5 24.5q-59 0 -89 -37t-38 -102z" />
<glyph unicode="&#xb3;" d="M393 1331v111h473v-92l-182 -166q82 -12 138.5 -62.5t56.5 -130.5q0 -137 -131 -219q-113 -70 -259 -70l-86 3v110q135 0 215 27q129 43 130 147q0 51 -45.5 73.5t-100.5 22.5q-25 0 -56.5 -4t-60.5 -8v86l193 172h-285z" />
<glyph unicode="&#xb4;" d="M420 1266l379 217l80 -137l-402 -177z" />
<glyph unicode="&#xb5;" d="M276 -451v1563h146v-735q0 -102 54 -181t153 -79q109 0 170 102q51 86 51 203v690h145v-1114h-145v88q-82 -109 -211 -109q-139 0 -217 103v-531h-146z" />
<glyph unicode="&#xb6;" horiz-adv-x="1361" d="M180 1038q0 197 125 302.5t326 105.5h469v-111h-70v-1677h-117v1677h-295v-1677h-118l2 995q-147 23 -234.5 128.5t-87.5 256.5z" />
<glyph unicode="&#xb7;" d="M526 772q0 47 32 74.5t81 27.5q47 0 75.5 -30.5t28.5 -77.5q0 -51 -30.5 -80t-81.5 -29q-47 0 -76 33t-29 82z" />
<glyph unicode="&#xb8;" d="M446 -344l46 113q45 -20 82.5 -32.5t74.5 -12.5q35 0 50.5 11t15.5 32q0 49 -83 57t-100 8l72 199h131l-39 -119q72 0 121 -41t49 -113q0 -74 -64.5 -119t-142.5 -45q-45 0 -108 21q-31 10 -105 41z" />
<glyph unicode="&#xb9;" d="M422 1350l303 102v-637h123v-110h-412v110h156v479l-131 -45z" />
<glyph unicode="&#xba;" d="M293 500v123h684v-123h-684zM358 1102q0 141 66 233q76 106 213 107q145 0 217 -115q59 -96 59 -252q0 -139 -67 -233q-76 -104 -211 -105q-147 0 -217 113q-59 94 -60 252zM504 1090q0 -90 20 -146q31 -84 109 -84q76 0 108 82q23 57 23 150q0 90 -23 147 q-33 84 -108 84q-78 0 -109 -84q-20 -55 -20 -149z" />
<glyph unicode="&#xbb;" d="M72 295l434 407l-434 408l102 107l543 -515l-543 -518zM547 295l434 407l-434 408l102 107l543 -515l-543 -518z" />
<glyph unicode="&#xbc;" d="M72 1350l301 102v-637h125v-110h-414v110h158v479l-131 -45zM172 27l801 1425l117 -66l-803 -1417zM702 164l123 573l127 -22l-98 -441h152v347h133v-347h59v-110h-59v-166h-133v166h-304z" />
<glyph unicode="&#xbd;" d="M86 1350l303 102v-637h123v-110h-412v110h156v479l-129 -45zM180 27l803 1425l115 -66l-801 -1417zM702 502q12 113 75 173t175 60q94 0 163 -51t69 -143q0 -104 -178 -297q-66 -68 -129 -135h303v-111h-475v92q123 137 247 277q100 125 101 168q0 41 -29 65.5t-70 24.5 q-59 0 -88.5 -37t-38.5 -103z" />
<glyph unicode="&#xbe;" d="M72 1331v111h473v-92l-180 -166q82 -12 137 -62.5t55 -130.5q0 -139 -129 -219q-109 -68 -260 -67l-86 2v110q137 0 215 25q129 41 129 147q0 51 -45 73.5t-100 22.5q-25 0 -55.5 -4t-59.5 -8v86l192 172h-286zM174 27l801 1425l117 -66l-803 -1417zM705 164l124 573 l125 -22l-98 -441h152v347h133v-347h59v-110h-59v-166h-133v166h-303z" />
<glyph unicode="&#xbf;" d="M246 342q0 166 160.5 310.5t160.5 301.5h150v-36q0 -184 -159 -320.5t-159 -253.5q0 -98 56.5 -162.5t154.5 -64.5q115 0 187 92q63 80 82 203l147 -35q-33 -182 -127 -285q-106 -115 -283 -115q-168 0 -269 97.5t-101 267.5zM541 1104v319h200v-319h-200z" />
<glyph unicode="&#xc0;" d="M188 8l361 1415h172l360 -1415l-145 -39l-111 467h-383l-110 -467zM420 1657l78 137l381 -217l-58 -96zM479 569h312l-154 654z" />
<glyph unicode="&#xc1;" d="M188 8l361 1415h172l360 -1415l-145 -39l-111 467h-383l-110 -467zM420 1577l379 217l80 -137l-402 -176zM479 569h312l-154 654z" />
<glyph unicode="&#xc2;" d="M188 8l361 1415h172l360 -1415l-145 -39l-111 467h-383l-110 -467zM311 1563l324 219l323 -219l-51 -80l-272 131l-270 -131zM479 569h312l-154 654z" />
<glyph unicode="&#xc3;" d="M188 8l361 1415h172l360 -1415l-145 -39l-111 467h-383l-110 -467zM305 1532q33 86 49 117q57 104 166 104q51 0 133 -62.5t113 -62.5q37 0 59 49q20 63 27 84l113 -35q-27 -106 -58 -151q-49 -76 -135 -76q-61 0 -145 61.5t-113 61.5q-37 0 -65 -49q-12 -20 -35 -84z M479 569h312l-154 654z" />
<glyph unicode="&#xc4;" d="M188 8l361 1415h172l360 -1415l-145 -39l-111 467h-383l-110 -467zM334 1632q0 53 26.5 91t77.5 38t78 -41t27 -94t-27 -95t-76 -42q-51 0 -78.5 45t-27.5 98zM479 569h312l-154 654zM725 1630q0 53 26.5 91t77.5 38t78 -44t27 -99q0 -49 -28.5 -89t-76.5 -40 q-51 0 -77.5 44t-26.5 99z" />
<glyph unicode="&#xc5;" d="M188 8l361 1415h172l360 -1415l-145 -39l-111 467h-383l-110 -467zM449 1577q0 78 54 132t130 54q78 0 133 -53t55 -131t-55 -133t-131 -55t-131 55t-55 131zM479 569h312l-154 654zM537 1571q0 -39 30.5 -65.5t73.5 -26.5q39 0 65.5 30.5t26.5 69.5t-31.5 66.5 t-70.5 27.5q-41 0 -67.5 -30.5t-26.5 -71.5z" />
<glyph unicode="&#xc6;" d="M86 8l358 1415h635v-133h-334v-463h308v-133h-308v-565h334v-131h-481v438h-250l-112 -467zM377 569h221v721h-53z" />
<glyph unicode="&#xc7;" d="M238 709q0 182 26 315q37 188 121 291q104 127 279 127q115 0 206 -66q80 -57 144 -168l-125 -73q-31 70 -91.5 119t-131.5 49q-170 0 -236 -228q-41 -141 -41 -366q0 -229 39 -365q66 -227 236 -227q78 0 147 57q55 45 102 123l121 -84q-61 -104 -157.5 -168.5 t-212.5 -64.5q-174 0 -277 124q-82 100 -121 289q-29 141 -28 316zM446 -342l46 113q45 -20 82.5 -32.5t74.5 -12.5q35 0 50.5 11t15.5 32q0 49 -83 57t-100 8l72 199h131l-39 -119q72 0 121 -41t49 -113q0 -74 -64.5 -118.5t-142.5 -44.5q-45 0 -108 20q-31 10 -105 41z " />
<glyph unicode="&#xc8;" d="M330 -2v1425h694v-133h-549v-463h453v-133h-453v-565h549v-131h-694zM420 1657l78 137l381 -217l-58 -96z" />
<glyph unicode="&#xc9;" d="M330 -2v1425h694v-133h-549v-463h453v-133h-453v-565h549v-131h-694zM420 1577l379 217l80 -137l-402 -176z" />
<glyph unicode="&#xca;" d="M311 1563l324 219l323 -219l-51 -80l-272 131l-270 -131zM330 -2v1425h694v-133h-549v-463h453v-133h-453v-565h549v-131h-694z" />
<glyph unicode="&#xcb;" d="M330 -2v1425h694v-133h-549v-463h453v-133h-453v-565h549v-131h-694zM334 1632q0 53 26.5 91t77.5 38t78 -41t27 -94t-27 -95t-76 -42q-51 0 -78.5 45t-27.5 98zM725 1630q0 53 26.5 91t77.5 38t78 -44t27 -99q0 -49 -28.5 -89t-76.5 -40q-51 0 -77.5 44t-26.5 99z" />
<glyph unicode="&#xcc;" d="M369 -2v131h192v1161h-192v133h532v-133h-194v-1161h194v-131h-532zM420 1657l78 137l381 -217l-58 -96z" />
<glyph unicode="&#xcd;" d="M369 -2v131h192v1161h-192v133h532v-133h-194v-1161h194v-131h-532zM420 1577l379 217l80 -137l-402 -176z" />
<glyph unicode="&#xce;" d="M311 1563l324 219l323 -219l-51 -80l-272 131l-270 -131zM369 -2v131h192v1161h-192v133h532v-133h-194v-1161h194v-131h-532z" />
<glyph unicode="&#xcf;" d="M334 1632q0 53 26.5 91t77.5 38t78 -41t27 -94t-27 -95t-76 -42q-51 0 -78.5 45t-27.5 98zM369 -2v131h192v1161h-192v133h532v-133h-194v-1161h194v-131h-532zM725 1630q0 53 26.5 91t77.5 38t78 -44t27 -99q0 -49 -28.5 -89t-76.5 -40q-51 0 -77.5 44t-26.5 99z" />
<glyph unicode="&#xd0;" d="M248 -2v131h114v514h-114v133h114v514h-114v133h377q203 0 311 -114q90 -94 121 -277q20 -119 20 -340q0 -412 -121 -561q-109 -133 -327 -133h-381zM510 129l113 2q211 0 272 211q31 104 31 387q0 236 -33 350q-59 211 -236 211h-147v-514h168v-133h-168v-514z" />
<glyph unicode="&#xd1;" d="M264 -2v1425h180l420 -1194l-4 318v876h146v-1425h-181l-419 1196l4 -324v-872h-146zM305 1532q33 86 49 117q57 104 166 104q51 0 133 -62.5t113 -62.5q37 0 59 49q20 63 27 84l113 -35q-27 -106 -58 -151q-49 -76 -135 -76q-61 0 -145 61.5t-113 61.5q-37 0 -65 -49 q-12 -20 -35 -84z" />
<glyph unicode="&#xd2;" d="M240 727q0 289 61 457q94 258 334 258q174 0 270 -133q78 -106 107 -301q18 -125 18 -318q0 -289 -61 -454q-96 -258 -334 -259q-176 0 -273 129q-76 102 -104 297q-18 127 -18 324zM389 674q0 -233 35 -357q57 -200 211 -200q152 0 209 190q35 117 35 316v68.5t2 76.5 q0 231 -37 352q-57 184 -207 185q-154 0 -213 -209q-35 -123 -35 -334v-88zM420 1657l78 137l381 -217l-58 -96z" />
<glyph unicode="&#xd3;" d="M240 727q0 289 61 457q94 258 334 258q174 0 270 -133q78 -106 107 -301q18 -125 18 -318q0 -289 -61 -454q-96 -258 -334 -259q-176 0 -273 129q-76 102 -104 297q-18 127 -18 324zM389 674q0 -233 35 -357q57 -200 211 -200q152 0 209 190q35 117 35 316v68.5t2 76.5 q0 231 -37 352q-57 184 -207 185q-154 0 -213 -209q-35 -123 -35 -334v-88zM420 1577l379 217l80 -137l-402 -176z" />
<glyph unicode="&#xd4;" d="M240 727q0 289 61 457q94 258 334 258q174 0 270 -133q78 -106 107 -301q18 -125 18 -318q0 -289 -61 -454q-96 -258 -334 -259q-176 0 -273 129q-76 102 -104 297q-18 127 -18 324zM311 1563l324 219l323 -219l-51 -80l-272 131l-270 -131zM389 674q0 -233 35 -357 q57 -200 211 -200q152 0 209 190q35 117 35 316v68.5t2 76.5q0 231 -37 352q-57 184 -207 185q-154 0 -213 -209q-35 -123 -35 -334v-88z" />
<glyph unicode="&#xd5;" d="M240 727q0 289 61 457q94 258 334 258q174 0 270 -133q78 -106 107 -301q18 -125 18 -318q0 -289 -61 -454q-96 -258 -334 -259q-176 0 -273 129q-76 102 -104 297q-18 127 -18 324zM305 1532q33 86 49 117q57 104 166 104q51 0 133 -62.5t113 -62.5q37 0 59 49 q20 63 27 84l113 -35q-27 -106 -58 -151q-49 -76 -135 -76q-61 0 -145 61.5t-113 61.5q-37 0 -65 -49q-12 -20 -35 -84zM389 674q0 -233 35 -357q57 -200 211 -200q152 0 209 190q35 117 35 316v68.5t2 76.5q0 231 -37 352q-57 184 -207 185q-154 0 -213 -209 q-35 -123 -35 -334v-88z" />
<glyph unicode="&#xd6;" d="M240 727q0 289 61 457q94 258 334 258q174 0 270 -133q78 -106 107 -301q18 -125 18 -318q0 -289 -61 -454q-96 -258 -334 -259q-176 0 -273 129q-76 102 -104 297q-18 127 -18 324zM334 1632q0 53 26.5 91t77.5 38t78 -41t27 -94t-27 -95t-76 -42q-51 0 -78.5 45 t-27.5 98zM389 674q0 -233 35 -357q57 -200 211 -200q152 0 209 190q35 117 35 316v68.5t2 76.5q0 231 -37 352q-57 184 -207 185q-154 0 -213 -209q-35 -123 -35 -334v-88zM725 1630q0 53 26.5 91t77.5 38t78 -44t27 -99q0 -49 -28.5 -89t-76.5 -40q-51 0 -77.5 44 t-26.5 99z" />
<glyph unicode="&#xd7;" d="M68 268l497 498l-497 502l67 69l500 -501l500 501l67 -69l-497 -502l497 -498l-67 -71l-500 501l-500 -501z" />
<glyph unicode="&#xd8;" d="M197 45l110 209q-31 102 -40 209.5t-9 245.5q0 193 18 311q29 188 107 291q96 129 268 129q145 0 246 -105l68 123l114 -59l-104 -189q33 -82 52.5 -198.5t19.5 -323.5q0 -291 -62 -457q-94 -256 -334 -256q-80 0 -149.5 36t-122.5 102l-70 -125zM406 786q0 -98 2 -171.5 t10 -155.5l405 745q-59 100 -174 101q-152 0 -209 -195q-35 -119 -34 -324zM459 262q27 -70 74 -108.5t120 -38.5q154 0 209 204q31 115 31 332v47q0 133 -3 186.5t-13 145.5z" />
<glyph unicode="&#xd9;" d="M287 338v1085h145l2 -1036q0 -129 35 -188q47 -80 166 -80q117 0 164 80q39 66 39 188v1036h147v-1077q0 -164 -94 -266.5t-256 -102.5q-160 0 -254 100.5t-94 260.5zM420 1657l78 137l381 -217l-58 -96z" />
<glyph unicode="&#xda;" d="M287 338v1085h145l2 -1036q0 -129 35 -188q47 -80 166 -80q117 0 164 80q39 66 39 188v1036h147v-1077q0 -164 -94 -266.5t-256 -102.5q-160 0 -254 100.5t-94 260.5zM420 1577l379 217l80 -137l-402 -176z" />
<glyph unicode="&#xdb;" d="M287 338v1085h145l2 -1036q0 -129 35 -188q47 -80 166 -80q117 0 164 80q39 66 39 188v1036h147v-1077q0 -164 -94 -266.5t-256 -102.5q-160 0 -254 100.5t-94 260.5zM311 1563l324 219l323 -219l-51 -80l-272 131l-270 -131z" />
<glyph unicode="&#xdc;" d="M287 338v1085h145l2 -1036q0 -129 35 -188q47 -80 166 -80q117 0 164 80q39 66 39 188v1036h147v-1077q0 -164 -94 -266.5t-256 -102.5q-160 0 -254 100.5t-94 260.5zM334 1632q0 53 26.5 91t77.5 38t78 -41t27 -94t-27 -95t-76 -42q-51 0 -78.5 45t-27.5 98zM725 1630 q0 53 26.5 91t77.5 38t78 -44t27 -99q0 -49 -28.5 -89t-76.5 -40q-51 0 -77.5 44t-26.5 99z" />
<glyph unicode="&#xdd;" d="M195 1397l135 55l305 -721l305 721l135 -57q-27 -61 -127 -267q-92 -190 -141 -301q-74 -168 -100 -268q-2 -2 -2 -63.5v-106.5v-219t2 -172l-146 -2v393v139q0 12 -2 31q-35 133 -168 418q-98 209 -196 420zM420 1577l379 217l80 -137l-402 -176z" />
<glyph unicode="&#xde;" d="M340 -2v1425h145l2 -315q348 0 457 -98q98 -88 98 -283q0 -270 -157 -354q-106 -57 -400 -58v-317h-145zM485 446h197q111 0 164 91q43 72 43 192q0 246 -242 246h-162v-529z" />
<glyph unicode="&#xdf;" d="M305 -2v895q0 106 98 176q88 61 201 61q121 0 195.5 -76.5t74.5 -197.5q0 -72 -28.5 -135.5t-83.5 -97.5q92 -23 147.5 -112t55.5 -189q0 -137 -77 -230.5t-212 -93.5h-133l2 131q178 0 222 42t44 144q0 109 -58.5 160t-168.5 51v131q66 6 102.5 59.5t36.5 125.5 t-32 110.5t-103 38.5q-86 0 -115 -59q-20 -43 -20 -139v-795h-148z" />
<glyph unicode="&#xe0;" d="M193 23l350 1089h184l350 -1089l-145 -54l-101 332h-391l-104 -332zM420 1346l78 137l381 -217l-58 -97zM481 432h307l-153 504z" />
<glyph unicode="&#xe1;" d="M193 23l350 1089h184l350 -1089l-145 -54l-101 332h-391l-104 -332zM420 1266l379 217l80 -137l-402 -177zM481 432h307l-153 504z" />
<glyph unicode="&#xe2;" d="M193 23l350 1089h184l350 -1089l-145 -54l-101 332h-391l-104 -332zM311 1251l324 219l323 -219l-51 -80l-272 132l-270 -132zM481 432h307l-153 504z" />
<glyph unicode="&#xe3;" d="M193 23l350 1089h184l350 -1089l-145 -54l-101 332h-391l-104 -332zM305 1221q33 86 49 116q57 104 166 105q51 0 133 -62.5t113 -62.5q37 0 59 49q20 63 27 84l113 -35q-27 -106 -58 -151q-49 -74 -135 -74q-53 0 -113 37q-133 84 -145 84q-37 0 -65 -49 q-12 -20 -35 -84zM481 432h307l-153 504z" />
<glyph unicode="&#xe4;" d="M193 23l350 1089h184l350 -1089l-145 -54l-101 332h-391l-104 -332zM334 1321q0 53 26.5 91t77.5 38t78 -41t27 -94t-27 -95t-76 -42q-51 0 -78.5 45t-27.5 98zM481 432h307l-153 504zM725 1319q0 53 26.5 92t77.5 39t78 -44t27 -99q0 -49 -28.5 -90t-76.5 -41 q-51 0 -77.5 44t-26.5 99z" />
<glyph unicode="&#xe5;" d="M193 23l350 1089h184l350 -1089l-145 -54l-101 332h-391l-104 -332zM449 1266q0 78 54 132t130 54q78 0 133 -53t55 -131t-55 -133.5t-131 -55.5t-131 55.5t-55 131.5zM481 432h307l-153 504zM537 1260q0 -39 30.5 -66t73.5 -27q39 0 65.5 31t26.5 72q0 39 -31.5 65.5 t-70.5 26.5q-41 0 -67.5 -30.5t-26.5 -71.5z" />
<glyph unicode="&#xe6;" d="M80 23l350 1089h709v-133h-379v-328h307v-131h-307v-391h379v-131h-525v303h-288l-101 -332zM369 432h245v547h-86z" />
<glyph unicode="&#xe7;" d="M238 569q0 223 92 377q111 184 321 184q123 0 210 -61t145 -178l-134 -68q-37 74 -86 117q-61 53 -133 53q-145 0 -213 -155q-49 -113 -49 -283q0 -176 45 -283q66 -154 217 -153q86 0 154 53q43 35 108 125l119 -84q-68 -113 -149 -170q-96 -66 -219 -66 q-225 0 -338 193q-90 156 -90 399zM449 -344l45 113q45 -20 82.5 -32.5t74.5 -12.5q35 0 50.5 11t15.5 32q0 49 -83 57t-99 8l71 199h131l-39 -119q72 0 121 -41t49 -113q0 -74 -64.5 -119t-141.5 -45q-45 0 -109 21q-31 10 -104 41z" />
<glyph unicode="&#xe8;" d="M330 -2v1114h694v-133h-549v-328h453v-131h-453v-391h549v-131h-694zM420 1346l78 137l381 -217l-58 -97z" />
<glyph unicode="&#xe9;" d="M330 -2v1114h694v-133h-549v-328h453v-131h-453v-391h549v-131h-694zM420 1266l379 217l80 -137l-402 -177z" />
<glyph unicode="&#xea;" d="M311 1251l324 219l323 -219l-51 -80l-272 132l-270 -132zM330 -2v1114h694v-133h-549v-328h453v-131h-453v-391h549v-131h-694z" />
<glyph unicode="&#xeb;" d="M330 -2v1114h694v-133h-549v-328h453v-131h-453v-391h549v-131h-694zM334 1321q0 53 26.5 91t77.5 38t78 -41t27 -94t-27 -95t-76 -42q-51 0 -78.5 45t-27.5 98zM725 1319q0 53 26.5 92t77.5 39t78 -44t27 -99q0 -49 -28.5 -90t-76.5 -41q-51 0 -77.5 44t-26.5 99z" />
<glyph unicode="&#xec;" d="M406 -2v131h155v850h-155v133h458v-133h-157v-850h157v-131h-458zM420 1346l78 137l381 -217l-58 -97z" />
<glyph unicode="&#xed;" d="M406 -2v131h155v850h-155v133h458v-133h-157v-850h157v-131h-458zM420 1266l379 217l80 -137l-402 -177z" />
<glyph unicode="&#xee;" d="M311 1251l324 219l323 -219l-51 -80l-272 132l-270 -132zM406 -2v131h155v850h-155v133h458v-133h-157v-850h157v-131h-458z" />
<glyph unicode="&#xef;" d="M334 1321q0 53 26.5 91t77.5 38t78 -41t27 -94t-27 -95t-76 -42q-51 0 -78.5 45t-27.5 98zM406 -2v131h155v850h-155v133h458v-133h-157v-850h157v-131h-458zM725 1319q0 53 26.5 92t77.5 39t78 -44t27 -99q0 -49 -28.5 -90t-76.5 -41q-51 0 -77.5 44t-26.5 99z" />
<glyph unicode="&#xf0;" d="M248 -2v131h114v358h-114v134h114v358h-114v133h373q268 0 372 -151q86 -125 86 -406q0 -285 -84 -408q-102 -150 -374 -149h-373zM510 129l147 2q168 0 228 137q41 94 41 285q0 250 -71 338t-202 88h-143v-358h168v-134h-168v-358z" />
<glyph unicode="&#xf1;" d="M264 -2v1114h178l428 -934v27q0 55 -5 149.5t-5 112.5v645h146v-1114h-179l-428 934v-27q0 -57 5.5 -151.5t5.5 -112.5v-643h-146zM305 1221q33 86 49 116q57 104 166 105q51 0 133 -62.5t113 -62.5q37 0 59 49q20 63 27 84l113 -35q-27 -106 -58 -151q-49 -74 -135 -74 q-53 0 -113 37q-133 84 -145 84q-37 0 -65 -49q-12 -20 -35 -84z" />
<glyph unicode="&#xf2;" d="M240 555q0 231 79 383q102 195 318 195q209 0 311 -195q82 -154 82 -385q0 -238 -78 -383q-100 -190 -317 -190q-209 0 -313 192q-82 152 -82 383zM391 555q0 -168 41 -276q59 -158 201 -158q141 0 201 158q41 109 40 278q0 174 -38 279q-59 158 -203 157 q-143 0 -203 -157q-39 -105 -39 -281zM418 1348l78 137l381 -217l-58 -97z" />
<glyph unicode="&#xf3;" d="M240 555q0 231 79 383q102 195 318 195q209 0 311 -195q82 -154 82 -385q0 -238 -78 -383q-100 -190 -317 -190q-209 0 -313 192q-82 152 -82 383zM391 555q0 -168 41 -276q59 -158 201 -158q141 0 201 158q41 109 40 278q0 174 -38 279q-59 158 -203 157 q-143 0 -203 -157q-39 -105 -39 -281zM418 1268l379 217l80 -137l-402 -177z" />
<glyph unicode="&#xf4;" d="M240 555q0 231 79 383q102 195 318 195q209 0 311 -195q82 -154 82 -385q0 -238 -78 -383q-100 -190 -317 -190q-209 0 -313 192q-82 152 -82 383zM309 1253l324 220l323 -220l-51 -79l-272 131l-271 -131zM391 555q0 -168 41 -276q59 -158 201 -158q141 0 201 158 q41 109 40 278q0 174 -38 279q-59 158 -203 157q-143 0 -203 -157q-39 -105 -39 -281z" />
<glyph unicode="&#xf5;" d="M240 555q0 231 79 383q102 195 318 195q209 0 311 -195q82 -154 82 -385q0 -238 -78 -383q-100 -190 -317 -190q-209 0 -313 192q-82 152 -82 383zM303 1223q33 86 49 116q57 104 166 105q51 0 133 -62.5t113 -62.5q37 0 59 49q20 63 27 84l113 -35q-27 -106 -58 -151 q-49 -74 -135 -74q-53 0 -113 37q-133 84 -145 84q-37 0 -66 -49q-12 -20 -34 -84zM391 555q0 -168 41 -276q59 -158 201 -158q141 0 201 158q41 109 40 278q0 174 -38 279q-59 158 -203 157q-143 0 -203 -157q-39 -105 -39 -281z" />
<glyph unicode="&#xf6;" d="M240 555q0 231 79 383q102 195 318 195q209 0 311 -195q82 -154 82 -385q0 -238 -78 -383q-100 -190 -317 -190q-209 0 -313 192q-82 152 -82 383zM332 1323q0 53 26.5 91t77.5 38t78 -41t27 -94t-27 -95t-76 -42q-51 0 -78.5 45t-27.5 98zM391 555q0 -168 41 -276 q59 -158 201 -158q141 0 201 158q41 109 40 278q0 174 -38 279q-59 158 -203 157q-143 0 -203 -157q-39 -105 -39 -281zM723 1321q0 53 26.5 92t77.5 39t78 -44t27 -99q0 -49 -29 -90t-76 -41q-51 0 -77.5 44t-26.5 99z" />
<glyph unicode="&#xf7;" d="M68 717v98h1134v-98h-1134zM539 1098q0 41 26.5 68.5t69.5 27.5q41 0 66.5 -27.5t25.5 -70.5q0 -39 -29.5 -64.5t-68.5 -25.5q-37 0 -63.5 28.5t-26.5 63.5zM541 436q0 41 26.5 67.5t69.5 26.5q41 0 66.5 -27.5t25.5 -70.5q0 -39 -29.5 -64.5t-68.5 -25.5 q-37 0 -63.5 28.5t-26.5 65.5z" />
<glyph unicode="&#xf8;" d="M240 557q0 231 79 383q102 195 314 195q113 0 203 -62l45 80l108 -61l-61 -119q55 -84 77.5 -189.5t22.5 -224.5q0 -227 -82 -381q-104 -195 -313 -194q-117 0 -207 65l-45 -82l-113 60l68 120q-55 82 -75.5 185.5t-20.5 224.5zM393 555q0 -137 31 -250l346 635 q-51 51 -135 51q-143 0 -203 -157q-39 -104 -39 -279zM494 172q63 -53 139 -53q141 0 201 157q41 109 40 279q0 74 -7 136.5t-25 121.5z" />
<glyph unicode="&#xf9;" d="M287 295v817h145l2 -758q0 -119 35 -172q43 -66 154 -65q123 0 169 56t46 181v758h147v-825q0 -145 -104 -230q-96 -78 -246 -77q-156 0 -248 77q-100 84 -100 238zM420 1346l78 137l381 -217l-58 -97z" />
<glyph unicode="&#xfa;" d="M287 295v817h145l2 -758q0 -119 35 -172q43 -66 154 -65q123 0 169 56t46 181v758h147v-825q0 -145 -104 -230q-96 -78 -246 -77q-156 0 -248 77q-100 84 -100 238zM420 1266l379 217l80 -137l-402 -177z" />
<glyph unicode="&#xfb;" d="M287 295v817h145l2 -758q0 -119 35 -172q43 -66 154 -65q123 0 169 56t46 181v758h147v-825q0 -145 -104 -230q-96 -78 -246 -77q-156 0 -248 77q-100 84 -100 238zM311 1251l324 219l323 -219l-51 -80l-272 132l-270 -132z" />
<glyph unicode="&#xfc;" d="M287 295v817h145l2 -758q0 -119 35 -172q43 -66 154 -65q123 0 169 56t46 181v758h147v-825q0 -145 -104 -230q-96 -78 -246 -77q-156 0 -248 77q-100 84 -100 238zM334 1321q0 53 26.5 91t77.5 38t78 -41t27 -94t-27 -95t-76 -42q-51 0 -78.5 45t-27.5 98zM725 1319 q0 53 26.5 92t77.5 39t78 -44t27 -99q0 -49 -28.5 -90t-76.5 -41q-51 0 -77.5 44t-26.5 99z" />
<glyph unicode="&#xfd;" d="M203 1067l137 74l295 -570l295 570l137 -72q-20 -37 -104 -184.5t-167 -294t-89 -164.5v-428l-146 -2v432q-10 31 -168 307q-39 68 -190 332zM420 1266l379 217l80 -137l-402 -177z" />
<glyph unicode="&#xfe;" d="M340 -2v1114h145v-240h101q215 0 311 -45q147 -70 147 -260q0 -233 -178 -299q-90 -33 -381 -32v-238h-145zM485 369h195q100 0 156.5 45t56.5 143q0 102 -54.5 143t-158.5 41h-195v-372z" />
<glyph unicode="&#xff;" d="M203 1067l137 74l295 -570l295 570l137 -72q-20 -37 -104 -184.5t-167 -294t-89 -164.5v-428l-146 -2v432q-10 31 -168 307q-39 68 -190 332zM334 1321q0 53 26.5 91t77.5 38t78 -41t27 -94t-27 -95t-76 -42q-51 0 -78.5 45t-27.5 98zM725 1319q0 53 26.5 92t77.5 39 t78 -44t27 -99q0 -49 -28.5 -90t-76.5 -41q-51 0 -77.5 44t-26.5 99z" />
<glyph unicode="&#x152;" d="M143 737q0 287 64 453q96 252 332 252q119 0 217 -4q341 -15 370 -15v-133h-325v-463h301v-133h-301v-565h325l2 -131q-121 0 -217 -4q-340 -14 -360 -14q-176 0 -277 133q-80 106 -110 301q-20 131 -21 323zM295 637q0 -209 33 -322q57 -199 213 -198q68 0 112 39v1114 q-23 18 -50.5 25.5t-63.5 7.5q-152 0 -209 -197q-35 -121 -35 -324v-145z" />
<glyph unicode="&#x153;" d="M123 571q0 223 84 373q104 186 311 186q23 0 66 -9t57 -9h508v-133h-379v-328h311v-131h-311v-391h379v-131h-506q-14 0 -39 -6q-57 -14 -74 -15q-225 0 -327 195q-80 152 -80 399zM276 553q0 -178 37 -279q59 -158 205 -157q55 0 107 28v820q-51 29 -107 28 q-141 0 -201 -159q-41 -109 -41 -281z" />
<glyph unicode="&#x178;" d="M195 1397l135 55l305 -721l305 721l135 -57q-27 -61 -127 -267q-92 -190 -141 -301q-74 -168 -100 -268q-2 -2 -2 -63.5v-106.5v-219t2 -172l-146 -2v393v139q0 12 -2 31q-35 133 -168 418q-98 209 -196 420zM334 1632q0 53 26.5 91t77.5 38t78 -41t27 -94t-27 -95 t-76 -42q-51 0 -78.5 45t-27.5 98zM725 1630q0 53 26.5 91t77.5 38t78 -44t27 -99q0 -49 -28.5 -89t-76.5 -40q-51 0 -77.5 44t-26.5 99z" />
<glyph unicode="&#x2c6;" d="M311 1251l324 219l323 -219l-51 -80l-272 132l-270 -132z" />
<glyph unicode="&#x2dc;" d="M305 1221q33 86 49 116q57 104 166 105q51 0 133 -62.5t113 -62.5q37 0 59 49q20 63 27 84l113 -35q-27 -106 -58 -151q-49 -74 -135 -74q-53 0 -113 37q-133 84 -145 84q-37 0 -65 -49q-12 -20 -35 -84z" />
<glyph unicode="&#x2000;" horiz-adv-x="897" />
<glyph unicode="&#x2001;" horiz-adv-x="1794" />
<glyph unicode="&#x2002;" horiz-adv-x="897" />
<glyph unicode="&#x2003;" horiz-adv-x="1794" />
<glyph unicode="&#x2004;" horiz-adv-x="598" />
<glyph unicode="&#x2005;" horiz-adv-x="448" />
<glyph unicode="&#x2006;" horiz-adv-x="299" />
<glyph unicode="&#x2007;" horiz-adv-x="299" />
<glyph unicode="&#x2008;" horiz-adv-x="224" />
<glyph unicode="&#x2009;" horiz-adv-x="358" />
<glyph unicode="&#x200a;" horiz-adv-x="99" />
<glyph unicode="&#x2010;" d="M397 485v140h475v-140h-475z" />
<glyph unicode="&#x2011;" d="M397 485v140h475v-140h-475z" />
<glyph unicode="&#x2012;" d="M397 485v140h475v-140h-475z" />
<glyph unicode="&#x2013;" d="M162 485v140h946v-140h-946z" />
<glyph unicode="&#x2014;" d="M-4 485v140h1278v-140h-1278z" />
<glyph unicode="&#x2018;" d="M455 997v97q0 109 69 204q63 88 168 144l51 -119q-53 -35 -72.5 -94.5t-19.5 -138.5v-47.5t2 -45.5h-198z" />
<glyph unicode="&#x2019;" d="M469 1098q53 35 76 102q16 51 16 131q0 23 -1 46.5t-1 45.5h199l2 -98q0 -109 -72 -205q-63 -88 -170 -143z" />
<glyph unicode="&#x201a;" d="M469 -8q53 35 76 102q16 51 16 131q0 23 -1 46.5t-1 45.5h199v-98q0 -106 -72 -205q-63 -88 -168 -143z" />
<glyph unicode="&#x201c;" d="M299 997v99q0 104 69.5 200.5t170.5 145.5l49 -121q-53 -33 -71.5 -89t-18.5 -132v-52.5t2 -50.5h-201zM694 997v99q0 104 70 200.5t170 145.5l49 -121q-55 -35 -73.5 -91t-18.5 -134v-51.5t2 -47.5h-199z" />
<glyph unicode="&#x201d;" d="M287 1098q53 35 71.5 92t18.5 135q0 25 -1 49.5t-1 48.5h200v-98q0 -109 -68.5 -201t-170.5 -147zM680 1098q53 35 76 102q16 51 16 131q0 23 -1 46.5t-1 45.5h201v-98q0 -109 -68.5 -201t-171.5 -147z" />
<glyph unicode="&#x201e;" d="M287 -8q53 35 71.5 92t18.5 135q0 25 -1 49.5t-1 48.5h200v-98q0 -106 -71 -205q-63 -88 -168 -143zM680 -8q53 35 76 102q16 51 16 131q0 23 -1 46.5t-1 45.5h201v-98q0 -106 -72 -205q-63 -88 -168 -143z" />
<glyph unicode="&#x2022;" d="M371 537q0 106 79 185t185 79q109 0 186.5 -78t77.5 -186q0 -113 -80 -189t-194 -76q-104 0 -179 79t-75 186z" />
<glyph unicode="&#x2026;" d="M111 -2v319h198v-319h-198zM535 -2v319h200v-319h-200zM961 -2v319h198v-319h-198z" />
<glyph unicode="&#x202f;" horiz-adv-x="358" />
<glyph unicode="&#x2039;" d="M297 702l543 515l102 -107l-436 -408l436 -407l-102 -111z" />
<glyph unicode="&#x203a;" d="M328 295l436 407l-436 408l102 107l543 -515l-543 -518z" />
<glyph unicode="&#x205f;" horiz-adv-x="448" />
<glyph unicode="&#x2122;" d="M37 1354v88h489v-88h-198v-516h-90v516h-201zM594 838v604h147l172 -420l177 420h143v-604h-88v508l-205 -508h-57l-195 508l-4 -508h-90z" />
<glyph unicode="&#x25fc;" horiz-adv-x="1136" d="M0 0v1137h1137v-1137h-1137z" />
</font>
</defs>
</svg>
